<svg xmlns="http://www.w3.org/2000/svg" width="78.81" height="104.034" viewBox="0 0 78.81 104.034">
  <g id="Group_16" data-name="Group 16" transform="translate(-819.595 -2508.07)">
    <g id="Group_12" data-name="Group 12" transform="translate(819.595 2509.415) rotate(-1)">
      <g id="file" transform="translate(0 0)">
        <g id="Group_10" data-name="Group 10" transform="translate(2.14 2.14)">
          <path id="Path_21" data-name="Path 21" d="M53.492,0H4.279A4.279,4.279,0,0,0,0,4.279V94.147a4.279,4.279,0,0,0,4.279,4.279H68.47a4.279,4.279,0,0,0,4.279-4.279V19.257Z" fill="#0e3a4f"/>
          <path id="Path_22" data-name="Path 22" d="M4.279,19.257H19.257L0,0V14.978A4.279,4.279,0,0,0,4.279,19.257Z" transform="translate(53.493 0)" fill="#0e3a4f"/>
          <path id="Path_23" data-name="Path 23" d="M45.777,12.862A18.829,18.829,0,0,0,27.737,0,18.545,18.545,0,0,0,8.875,18.19c0,.428.023.856.045,1.284A10.788,10.788,0,0,0,0,29.959a10.912,10.912,0,0,0,11.094,10.7H45.488c.379,0,.734-.021,1.111-.043a13.882,13.882,0,0,0-.822-27.752Z" transform="translate(6.419 34.232)" fill="#0e3a4f"/>
        </g>
        <g id="Group_11" data-name="Group 11" transform="translate(0 0)">
          <path id="Path_24" data-name="Path 24" d="M77,21.262a2.018,2.018,0,0,0-.109-.55c-.023-.068-.041-.135-.071-.2a2.139,2.139,0,0,0-.428-.627L57.137.627A2.138,2.138,0,0,0,56.51.2c-.066-.03-.131-.047-.2-.071a2.157,2.157,0,0,0-.55-.1c-.043,0-.084-.026-.129-.026H6.419A6.419,6.419,0,0,0,0,6.419H0V96.287a6.419,6.419,0,0,0,6.419,6.419H70.61a6.419,6.419,0,0,0,6.419-6.419V21.4C77.029,21.35,77.006,21.309,77,21.262Zm-7.277-2H59.912a2.14,2.14,0,0,1-2.14-2.14V7.3Zm.886,79.169H6.419a2.14,2.14,0,0,1-2.14-2.14V6.419a2.14,2.14,0,0,1,2.14-2.14H53.493V17.118a6.419,6.419,0,0,0,6.419,6.419H72.75v72.75A2.14,2.14,0,0,1,70.61,98.426Z" fill="#a4ebf3"/>
          <path id="Path_25" data-name="Path 25" d="M49.453,12.954A20.9,20.9,0,0,0,29.877,0a20.712,20.712,0,0,0-21,19.974A12.883,12.883,0,0,0,0,32.1,13.052,13.052,0,0,0,13.234,44.936H47.628c.428,0,.809-.021,1.265-.047a16,16,0,0,0,.561-31.935ZM48.6,40.618c-.33.019-.642.038-.973.038H13.234A8.773,8.773,0,0,1,4.279,32.1a8.659,8.659,0,0,1,7.179-8.381,2.2,2.2,0,0,0,1.735-2.272c-.019-.37-.039-.742-.039-1.115A16.414,16.414,0,0,1,29.877,4.282a16.8,16.8,0,0,1,16,11.368,2.14,2.14,0,0,0,2,1.5A11.745,11.745,0,0,1,48.6,40.625Z" transform="translate(6.419 34.233)" fill="#a4ebf3"/>
          <path id="Path_26" data-name="Path 26" d="M0,0H4.279V4.279H0Z" transform="translate(12.838 12.838)" fill="#a4ebf3"/>
          <path id="Path_27" data-name="Path 27" d="M0,0H8.559V4.279H0Z" transform="translate(21.397 12.838)" fill="#a4ebf3"/>
          <path id="Path_28" data-name="Path 28" d="M0,0H17.118V4.279H0Z" transform="translate(12.838 21.397)" fill="#a4ebf3"/>
        </g>
      </g>
    </g>
  </g>
</svg>
