<svg xmlns="http://www.w3.org/2000/svg" width="109" height="46.85" viewBox="0 0 109 46.85">
  <g id="Group_1" data-name="Group 1" transform="translate(-555 -161.306)">
    <g id="logo1" transform="translate(593.087 161.306)">
      <path id="Path_16" data-name="Path 16" d="M168.683-135.237c.413-1.343,1.735-1.322,2.768-1.033a1.449,1.449,0,0,1,.434.289c.165.124.31.331.5.351a1.311,1.311,0,0,0,1.157-.31,8.517,8.517,0,0,0,.578-.64,3.6,3.6,0,0,1,2.211-1.508.33.33,0,0,0,.186-.269c.021-.413,0-.826.021-1.26a2.078,2.078,0,0,1,1.818-1.963,4.318,4.318,0,0,1,.517-.021h11.4a2.015,2.015,0,0,1,1.57.64c1.343,1.364,2.686,2.706,4.049,4.07a1.812,1.812,0,0,1,.578,1.4c-.021.455,0,.909,0,1.364,0,.393-.227.64-.537.64s-.5-.248-.5-.62v-1.426c-.124,0-.248-.021-.351-.021h-2.438a2.11,2.11,0,0,1-2.211-2.19v-2.789c-.145,0-.269-.021-.393-.021H178.806c-.888,0-1.281.393-1.281,1.26v2.149c0,.475.145.62.62.62h3.9a1.609,1.609,0,0,1,1.55.868,1.566,1.566,0,0,1-.124,1.735.355.355,0,0,0-.021.289,1.646,1.646,0,0,1-.289,2.169.347.347,0,0,0-.083.269,1.613,1.613,0,0,1-.5,1.963,4.963,4.963,0,0,1,.145,1.074,1.557,1.557,0,0,1-1.549,1.446c-1.116.021-2.252-.021-3.368-.041h-.269c0,.124-.021.248-.021.372v8.388c0,.888.393,1.26,1.281,1.26h15.309c.93,0,1.3-.393,1.3-1.3v-4.008c0-.289-.1-.393-.372-.372-.826,0-1.653.021-2.479,0a1.68,1.68,0,0,1-1.591-.992,1.675,1.675,0,0,1,.207-1.8,1.685,1.685,0,0,1,1.4-.64h1.57a1.15,1.15,0,0,0,1.24-1.24V-131.5c0-.393.186-.62.5-.62.331-.021.537.207.537.62v3.409a.851.851,0,0,0,.165.062,3.321,3.321,0,0,1,1.983,1.24c.165.207.351.434.517.661a1.47,1.47,0,0,0,1.488.558.593.593,0,0,0,.269-.165,1.464,1.464,0,0,1,1.26-.6,3.781,3.781,0,0,1,.971.062,1.391,1.391,0,0,1,1.116,1.364c.021,2.149.021,4.318,0,6.467a1.424,1.424,0,0,1-1.4,1.426c-.269.021-.537,0-.806,0a1.314,1.314,0,0,1-1.1-.558.564.564,0,0,0-.5-.248,4.663,4.663,0,0,0-2.417.475,4.891,4.891,0,0,1-.7.269,2.765,2.765,0,0,0-1.632.909,1.817,1.817,0,0,1-1.529.517H178.6a2.083,2.083,0,0,1-2.149-2.19v-8.636c0-.331-.083-.434-.413-.537a13.609,13.609,0,0,1-1.818-.661,4.506,4.506,0,0,0-2.025-.207c-.083,0-.165.1-.227.165a1.484,1.484,0,0,1-1.26.62h-.62a1.4,1.4,0,0,1-1.4-.992c-.021-.041-.062-.1-.083-.145C168.683-130.547,168.683-132.881,168.683-135.237Zm3.636,6.322h.434a4.437,4.437,0,0,1,2.314.455,7.546,7.546,0,0,0,2.851.723c1.1.021,2.169.041,3.264.021a.553.553,0,0,0,.578-.578.568.568,0,0,0-.537-.578,1.553,1.553,0,0,0-.31,0h-2.748a.536.536,0,0,1-.578-.475.549.549,0,0,1,.537-.558h3.223q.868,0,.868-.558c0-.393-.269-.578-.847-.578h-3.1c-.434,0-.682-.186-.682-.517s.248-.537.7-.537h3.76c.434,0,.682-.207.7-.558,0-.372-.248-.6-.7-.6h-3.925a.507.507,0,0,1-.517-.5.519.519,0,0,1,.475-.537,1.553,1.553,0,0,1,.31,0h3.678c.455,0,.723-.207.723-.558s-.248-.578-.7-.578h-3.76a2.538,2.538,0,0,1-.558-.041,1.469,1.469,0,0,1-1.24-1.281c-.021-.083-.021-.165-.041-.289a2.466,2.466,0,0,0-1.322.826c-.227.269-.455.558-.682.826a2.148,2.148,0,0,1-1.632.826,5.087,5.087,0,0,0-.537.041v.744c-.021.351-.207.578-.516.578a.517.517,0,0,1-.517-.578c-.021-.227,0-.434,0-.661,0-.909-.021-.909-.909-.909-.517,0-.64.124-.64.64,0,1.859.021,3.74,0,5.6-.021,1.116.1,1.012,1.095,1.012a.426.426,0,0,0,.475-.475v-1.818a6.983,6.983,0,0,1,.021-.93.507.507,0,0,1,.537-.475.5.5,0,0,1,.475.5v.393C172.319-130.278,172.319-129.638,172.319-128.915Zm24.235,1.963a2.34,2.34,0,0,1-2.748,2.19,12,12,0,0,0-1.219,0,.665.665,0,0,0-.661.661.657.657,0,0,0,.62.661,2,2,0,0,0,.351.021h2.252a1.913,1.913,0,0,1,1.694.992,1.526,1.526,0,0,0,1.3.888.5.5,0,0,1,.475.537.479.479,0,0,1-.558.475,10.106,10.106,0,0,1-1.281-.393.865.865,0,0,1-.248-.165v3.223c.7-.269,1.343-.578,2-.764a14.394,14.394,0,0,1,2.107-.31v-5.516c-.041-.021-.062-.041-.083-.041-.062,0-.145-.021-.207-.021a2.312,2.312,0,0,1-1.983-.971c-.186-.248-.393-.5-.6-.723A2.339,2.339,0,0,0,196.553-126.952Zm5.165,5.289v2.789c0,.847.021.847.868.847h.041c.537,0,.661-.1.661-.64v-5.661c0-.93-.021-.95-.95-.93-.475,0-.6.124-.6.6C201.718-123.688,201.718-122.675,201.718-121.663ZM191.533-139.72c0,.723-.021,1.446,0,2.149a.962.962,0,0,0,.888.93c.723.041,1.467,0,2.19,0Z" transform="translate(-168.6 141.6)" fill="#a4ebf3"/>
      <path id="Path_17" data-name="Path 17" d="M224.41-39.667h-2.19c-.372,0-.62-.186-.62-.5s.248-.537.64-.537h4.4c.393,0,.64.207.64.537,0,.31-.248.517-.64.517C225.9-39.646,225.154-39.667,224.41-39.667Z" transform="translate(-210.65 61.546)" fill="#a4ebf3"/>
      <path id="Path_18" data-name="Path 18" d="M224.472-51.2h2.19c.372,0,.62.207.62.517a.539.539,0,0,1-.6.537H222.2a.539.539,0,0,1-.6-.537c0-.31.248-.5.62-.5C222.964-51.2,223.728-51.2,224.472-51.2Z" transform="translate(-210.65 69.877)" fill="#a4ebf3"/>
    </g>
    <text id="College_Space" data-name="College Space" transform="translate(555 203.156)" fill="#a4ebf3" font-size="15" font-family="Poppins-Light, Poppins" font-weight="300"><tspan x="0" y="0">College Space</tspan></text>
  </g>
</svg>
